<svg aria-hidden="true" style="position: absolute; width: 0; height: 0; overflow: hidden;" version="1.1" xmlns="http://www.w3.org/2000/svg" xmlns:xlink="http://www.w3.org/1999/xlink">
<defs>
<symbol id="icon-twitter" viewBox="0 0 32 32">
<path d="M30.707 9.707l-3.738 3.738c-0.755 8.752-8.136 15.555-16.97 15.555-1.815 0-3.311-0.288-4.447-0.855-0.916-0.459-1.291-0.95-1.385-1.090-0.105-0.156-0.168-0.348-0.168-0.555 0-0.426 0.267-0.79 0.642-0.934l0.007-0.002c0.032-0.012 3.030-1.164 4.934-3.355-1.052-0.869-1.956-1.865-2.704-2.976l-0.031-0.049c-1.55-2.301-3.285-6.299-2.75-12.273 0.047-0.513 0.475-0.911 0.996-0.911 0.278 0 0.529 0.113 0.71 0.296l0 0c0.044 0.044 4.16 4.138 9.192 5.465v-0.761c0-0.004-0-0.009-0-0.014 0-1.673 0.687-3.186 1.794-4.272l0.001-0.001c1.060-1.058 2.523-1.713 4.14-1.713 0.029 0 0.057 0 0.086 0.001l-0.004-0c2.2 0.022 4.117 1.209 5.168 2.972l0.015 0.028h3.804c0 0 0 0 0.001 0 0.552 0 1 0.448 1 1 0 0.276-0.112 0.527-0.293 0.707v0z"></path>
</symbol>
<symbol id="icon-instagram" viewBox="0 0 32 32">
<path d="M22 3h-12c-3.864 0.004-6.996 3.136-7 7v12c0.004 3.864 3.136 6.996 7 7h12c3.864-0.004 6.996-3.136 7-7v-12c-0.004-3.864-3.136-6.996-7-7h-0zM16 22c-3.314 0-6-2.686-6-6s2.686-6 6-6c3.314 0 6 2.686 6 6v0c-0.004 3.312-2.688 5.996-6 6h-0zM23.5 10c-0.828 0-1.5-0.672-1.5-1.5s0.672-1.5 1.5-1.5c0.828 0 1.5 0.672 1.5 1.5v0c0 0.828-0.672 1.5-1.5 1.5v0zM20 16c0 2.209-1.791 4-4 4s-4-1.791-4-4c0-2.209 1.791-4 4-4v0c2.209 0 4 1.791 4 4v0z"></path>
</symbol>
<symbol id="icon-facebook" viewBox="0 0 32 32">
<path d="M29 16c-0.009 6.628-4.969 12.095-11.38 12.901l-0.064 0.007c-0.017 0.002-0.036 0.003-0.056 0.003-0.276 0-0.5-0.224-0.5-0.5 0-0.001 0-0.002 0-0.003v0-9.407h3c0.001 0 0.001 0 0.002 0 0.552 0 1-0.448 1-1 0-0.023-0.001-0.046-0.002-0.069l0 0.003c-0.046-0.525-0.484-0.934-1.017-0.934-0.005 0-0.010 0-0.014 0h-2.968v-3c0-1.105 0.895-2 2-2v0h2c0.001 0 0.001 0 0.002 0 0.552 0 1-0.448 1-1 0-0.023-0.001-0.046-0.002-0.069l0 0.003c-0.046-0.525-0.484-0.934-1.018-0.934-0.006 0-0.011 0-0.017 0h-1.965c-2.209 0-4 1.791-4 4v0 3h-3c-0.001 0-0.001 0-0.002 0-0.552 0-1 0.448-1 1 0 0.023 0.001 0.046 0.002 0.069l-0-0.003c0.046 0.525 0.484 0.934 1.018 0.934 0.006 0 0.011-0 0.017-0h2.965v9.41c0 0.001 0 0.002 0 0.003 0 0.276-0.224 0.5-0.5 0.5-0.019 0-0.039-0.001-0.057-0.003l0.002 0c-6.481-0.812-11.445-6.288-11.445-12.923 0-0.167 0.003-0.334 0.009-0.499l-0.001 0.024c0.25-6.75 5.717-12.238 12.473-12.5 0.15-0.006 0.327-0.010 0.504-0.010 7.182 0 13.006 5.818 13.015 12.998v0.001z"></path>
</symbol>
<symbol id="icon-x" viewBox="0 0 32 32">
<path d="M25.707 24.293c0.181 0.181 0.293 0.431 0.293 0.707 0 0.553-0.448 1.001-1.001 1.001-0.276 0-0.526-0.112-0.707-0.293l-8.293-8.294-8.293 8.294c-0.181 0.181-0.431 0.293-0.707 0.293-0.553 0-1.001-0.448-1.001-1.001 0-0.276 0.112-0.526 0.293-0.707v0l8.294-8.293-8.294-8.293c-0.181-0.181-0.293-0.431-0.293-0.707 0-0.553 0.448-1.001 1.001-1.001 0.276 0 0.526 0.112 0.708 0.293l8.292 8.294 8.293-8.294c0.181-0.181 0.431-0.293 0.707-0.293 0.553 0 1.001 0.448 1.001 1.001 0 0.276-0.112 0.526-0.293 0.708v0l-8.294 8.292z"></path>
</symbol>
<symbol id="icon-check" viewBox="0 0 32 32">
<path d="M28.707 9.707l-16 16c-0.181 0.181-0.431 0.293-0.707 0.293s-0.527-0.112-0.707-0.293v0l-7-7c-0.181-0.181-0.293-0.431-0.293-0.707 0-0.553 0.448-1.001 1.001-1.001 0.276 0 0.526 0.112 0.707 0.293v0l6.293 6.294 15.293-15.294c0.181-0.181 0.431-0.293 0.707-0.293 0.553 0 1.001 0.448 1.001 1.001 0 0.276-0.112 0.526-0.293 0.707v0z"></path>
</symbol>
<symbol id="icon-infinity" viewBox="0 0 32 32">
<path d="M31 16c0 0 0 0 0 0 0 3.866-3.134 7-7 7-1.933 0-3.683-0.784-4.95-2.050v0l-0.041-0.044-7.494-8.463c-0.903-0.892-2.144-1.444-3.515-1.444-2.761 0-5 2.239-5 5s2.239 5 5 5c1.37 0 2.612-0.551 3.515-1.444l-0 0 1.065-1.203c0.184-0.208 0.452-0.338 0.75-0.338 0.553 0 1.001 0.448 1.001 1.001 0 0.255-0.095 0.487-0.252 0.664l0.001-0.001-1.086 1.226-0.041 0.044c-1.267 1.267-3.017 2.050-4.95 2.050-3.866 0-7-3.134-7-7s3.134-7 7-7c1.933 0 3.683 0.783 4.95 2.050v0l0.041 0.044 7.494 8.462c0.903 0.892 2.144 1.444 3.515 1.444 2.761 0 5-2.239 5-5s-2.239-5-5-5c-1.37 0-2.612 0.551-3.515 1.444l0-0-1.065 1.203c-0.184 0.208-0.452 0.338-0.75 0.338-0.553 0-1.001-0.448-1.001-1.001 0-0.255 0.095-0.487 0.252-0.664l-0.001 0.001 1.086-1.226 0.041-0.044c1.267-1.267 3.017-2.050 4.95-2.050 3.866 0 7 3.134 7 7 0 0 0 0 0 0.001v-0z"></path>
</symbol>
<symbol id="icon-pause" viewBox="0 0 32 32">
<path d="M25 4h-5c-1.105 0-2 0.895-2 2v0 20c0 1.105 0.895 2 2 2v0h5c1.105 0 2-0.895 2-2v0-20c0-1.105-0.895-2-2-2v0zM25 26h-5v-20h5zM12 4h-5c-1.105 0-2 0.895-2 2v0 20c0 1.105 0.895 2 2 2v0h5c1.105 0 2-0.895 2-2v0-20c0-1.105-0.895-2-2-2v0zM12 26h-5v-20h5z"></path>
</symbol>
<symbol id="icon-star" viewBox="0 0 32 32">
<path d="M29.9 12.161c-0.25-0.754-0.916-1.301-1.718-1.374l-0.008-0.001-7.424-0.64-2.91-6.92c-0.309-0.726-1.016-1.226-1.84-1.226s-1.531 0.5-1.835 1.213l-0.005 0.013-2.901 6.92-7.433 0.644c-1.030 0.089-1.833 0.947-1.833 1.993 0 0.604 0.268 1.146 0.691 1.512l0.002 0.002 5.639 4.928-1.69 7.317c-0.033 0.137-0.052 0.293-0.052 0.455 0 1.105 0.895 2 2 2 0.381 0 0.738-0.107 1.041-0.292l-0.009 0.005 6.375-3.875 6.389 3.875c0.294 0.18 0.651 0.287 1.032 0.287 1.105 0 2-0.895 2-2 0-0.161-0.019-0.318-0.055-0.468l0.003 0.014-1.689-7.325 5.637-4.92c0.424-0.369 0.691-0.909 0.691-1.512 0-0.223-0.037-0.438-0.104-0.638l0.004 0.014zM27.997 12.786l-5.637 4.92c-0.422 0.369-0.687 0.908-0.687 1.509 0 0.161 0.019 0.318 0.055 0.468l-0.003-0.014 1.694 7.33-6.384-3.875c-0.294-0.182-0.651-0.29-1.034-0.29s-0.739 0.108-1.042 0.295l0.009-0.005-6.375 3.875 1.682-7.325c0.033-0.137 0.052-0.293 0.052-0.455 0-0.601-0.265-1.14-0.685-1.507l-0.002-0.002-5.64-4.918c-0-0.002-0-0.004-0-0.006s0-0.004 0-0.006l-0 0 7.43-0.643c0.754-0.068 1.381-0.546 1.664-1.206l0.005-0.013 2.901-6.911 2.9 6.911c0.288 0.673 0.915 1.15 1.661 1.218l0.008 0.001 7.431 0.643s0 0.008 0 0.009z"></path>
</symbol>
<symbol id="icon-plant" viewBox="0 0 32 32">
<path d="M30.954 4.986c-0.030-0.506-0.434-0.91-0.937-0.94l-0.003-0c-6.47-0.375-11.665 1.593-13.898 5.277-1.475 2.436-1.473 5.395-0.020 8.217-0.797 0.944-1.407 2.073-1.756 3.312l-0.015 0.063-2.034-2.041c0.977-2.041 0.94-4.169-0.125-5.936-1.65-2.724-5.459-4.184-10.188-3.906-0.506 0.030-0.91 0.434-0.94 0.937l-0 0.003c-0.279 4.729 1.183 8.537 3.906 10.187 0.85 0.527 1.881 0.84 2.985 0.84h0c1.075-0.014 2.086-0.274 2.984-0.727l-0.039 0.018 3.125 3.125v3.584c0 0.552 0.448 1 1 1s1-0.448 1-1v0-3.686c-0-0.006-0-0.013-0-0.019 0-1.655 0.578-3.175 1.544-4.369l-0.010 0.013c1.208 0.644 2.639 1.030 4.158 1.050l0.006 0c0.007 0 0.016 0 0.025 0 1.462 0 2.828-0.412 3.987-1.126l-0.033 0.019c3.685-2.23 5.657-7.425 5.277-13.895zM5.976 18.45c-1.918-1.161-3.002-3.91-2.976-7.45 3.54-0.030 6.289 1.059 7.45 2.976 0.606 1 0.705 2.166 0.307 3.367l-3.051-3.051c-0.179-0.17-0.422-0.275-0.689-0.275-0.552 0-1 0.448-1 1 0 0.267 0.105 0.51 0.275 0.689l3.051 3.051c-1.201 0.398-2.366 0.299-3.367-0.308zM24.64 17.172c-1.675 1.014-3.644 1.091-5.644 0.25l6.711-6.713c0.17-0.179 0.275-0.422 0.275-0.689 0-0.552-0.448-1-1-1-0.267 0-0.51 0.105-0.689 0.275l0-0-6.712 6.704c-0.845-2-0.769-3.97 0.25-5.644 1.742-2.875 5.875-4.478 11.166-4.354 0.12 5.29-1.48 9.428-4.358 11.17z"></path>
</symbol>
<symbol id="icon-carrot" viewBox="0 0 32 32">
<path d="M29 8h-3.586l3.294-3.293c0.181-0.181 0.293-0.431 0.293-0.708 0-0.553-0.448-1.001-1.001-1.001-0.276 0-0.526 0.112-0.707 0.293v0l-3.293 3.294v-3.586c0-0.552-0.448-1-1-1s-1 0.448-1 1v0 4.071c-1.147-0.674-2.527-1.072-4-1.072-2.206 0-4.203 0.893-5.65 2.337l0-0c-5.013 4.924-8.781 16.635-9.149 17.806-0.118 0.248-0.187 0.538-0.187 0.845 0 1.105 0.895 2 2 2 0.307 0 0.597-0.069 0.857-0.192l-0.012 0.005c1.171-0.367 12.898-4.141 17.809-9.151 1.442-1.447 2.334-3.443 2.334-5.647 0-1.473-0.398-2.854-1.093-4.039l0.020 0.038h4.071c0.552 0 1-0.448 1-1s-0.448-1-1-1v0zM22.235 18.25c-1.117 1.14-2.656 2.225-4.356 3.216l-3.172-3.174c-0.181-0.181-0.431-0.293-0.707-0.293-0.553 0-1.001 0.448-1.001 1.001 0 0.276 0.112 0.526 0.293 0.707l2.761 2.761c-5.109 2.649-10.79 4.427-10.875 4.454-0.068 0.022-0.127 0.049-0.182 0.080l0.005-0.003c0.028-0.050 0.053-0.108 0.072-0.169l0.002-0.007c0.036-0.116 3.5-11.197 8-16.334l4.221 4.221c0.181 0.181 0.431 0.293 0.707 0.293 0.553 0 1.001-0.448 1.001-1.001 0-0.276-0.112-0.526-0.293-0.707l-4.188-4.186c0.967-0.695 2.174-1.111 3.478-1.111 3.314 0 6 2.686 6 6 0 1.661-0.675 3.165-1.766 4.251l-0 0z"></path>
</symbol>
<symbol id="icon-flame" viewBox="0 0 32 32">
<path d="M21.724 6.435c-1.53-1.61-3.238-3.027-5.1-4.227l-0.109-0.066c-0.147-0.090-0.325-0.143-0.515-0.143s-0.368 0.053-0.519 0.145l0.004-0.002c-1.971 1.265-3.679 2.682-5.198 4.281l-0.011 0.012c-3.453 3.625-5.276 7.624-5.276 11.565 0 6.075 4.925 11 11 11s11-4.925 11-11v0c0-3.941-1.824-7.94-5.276-11.565zM12 23c0-3.459 2.816-5.91 4-6.788 1.185 0.875 4 3.329 4 6.788 0 2.209-1.791 4-4 4s-4-1.791-4-4v0zM21.659 24.991c0.216-0.593 0.341-1.277 0.341-1.99 0-0 0-0.001 0-0.001v0c0-5.5-5.261-8.724-5.485-8.857-0.147-0.090-0.325-0.143-0.515-0.143s-0.368 0.053-0.519 0.145l0.004-0.002c-0.224 0.134-5.485 3.357-5.485 8.857 0 0 0 0.001 0 0.001 0 0.713 0.125 1.398 0.354 2.032l-0.013-0.042c-2.045-1.66-3.341-4.174-3.341-6.991v0c0-4.301 2.55-7.894 4.69-10.149 1.285-1.344 2.696-2.548 4.219-3.6l0.091-0.059c1.615 1.11 3.025 2.314 4.3 3.648l0.010 0.010c3.876 4.086 4.69 7.774 4.69 10.149 0 2.817-1.296 5.331-3.325 6.978l-0.017 0.013z"></path>
</symbol>
<symbol id="icon-fork-knife" viewBox="0 0 32 32">
<path d="M9 11v-6c0-0.552 0.448-1 1-1s1 0.448 1 1v0 6c0 0.552-0.448 1-1 1s-1-0.448-1-1v0zM27 5v23c0 0.552-0.448 1-1 1s-1-0.448-1-1v0-6h-6c-0.552 0-1-0.448-1-1v0c0.051-2.547 0.377-4.992 0.95-7.34l-0.047 0.23c1.223-5.061 3.54-8.454 6.704-9.809 0.116-0.051 0.251-0.081 0.394-0.081 0.552 0 1 0.447 1 1v0zM25 6.737c-4.021 3.071-4.809 10.552-4.962 13.262h4.962zM14.986 4.836c-0.074-0.485-0.489-0.852-0.989-0.852-0.552 0-1 0.448-1 1 0 0.064 0.006 0.127 0.018 0.187l-0.001-0.006 0.986 5.914c0 2.209-1.791 4-4 4s-4-1.791-4-4v0l0.985-5.914c0.011-0.054 0.017-0.117 0.017-0.181 0-0.552-0.448-1-1-1-0.5 0-0.915 0.367-0.988 0.847l-0.001 0.006-1 6c-0.008 0.048-0.013 0.103-0.013 0.159 0 0.002 0 0.003 0 0.005v-0c0.004 2.959 2.146 5.416 4.964 5.91l0.036 0.005v11.085c0 0.552 0.448 1 1 1s1-0.448 1-1v0-11.085c2.854-0.499 4.996-2.956 5-5.915v-0c-0-0.058-0.005-0.115-0.015-0.17l0.001 0.006z"></path>
</symbol>
</defs>
</svg>
