<!-- Generated by IcoMoon.io -->
<svg version="1.1" xmlns="http://www.w3.org/2000/svg" width="32" height="32" viewBox="0 0 32 32">
<title>carrot</title>
<path d="M29 8h-3.586l3.294-3.293c0.181-0.181 0.293-0.431 0.293-0.708 0-0.553-0.448-1.001-1.001-1.001-0.276 0-0.526 0.112-0.707 0.293v0l-3.293 3.294v-3.586c0-0.552-0.448-1-1-1s-1 0.448-1 1v0 4.071c-1.147-0.674-2.527-1.072-4-1.072-2.206 0-4.203 0.893-5.65 2.337l0-0c-5.013 4.924-8.781 16.635-9.149 17.806-0.118 0.248-0.187 0.538-0.187 0.845 0 1.105 0.895 2 2 2 0.307 0 0.597-0.069 0.857-0.192l-0.012 0.005c1.171-0.367 12.898-4.141 17.809-9.151 1.442-1.447 2.334-3.443 2.334-5.647 0-1.473-0.398-2.854-1.093-4.039l0.020 0.038h4.071c0.552 0 1-0.448 1-1s-0.448-1-1-1v0zM22.235 18.25c-1.117 1.14-2.656 2.225-4.356 3.216l-3.172-3.174c-0.181-0.181-0.431-0.293-0.707-0.293-0.553 0-1.001 0.448-1.001 1.001 0 0.276 0.112 0.526 0.293 0.707l2.761 2.761c-5.109 2.649-10.79 4.427-10.875 4.454-0.068 0.022-0.127 0.049-0.182 0.080l0.005-0.003c0.028-0.050 0.053-0.108 0.072-0.169l0.002-0.007c0.036-0.116 3.5-11.197 8-16.334l4.221 4.221c0.181 0.181 0.431 0.293 0.707 0.293 0.553 0 1.001-0.448 1.001-1.001 0-0.276-0.112-0.526-0.293-0.707l-4.188-4.186c0.967-0.695 2.174-1.111 3.478-1.111 3.314 0 6 2.686 6 6 0 1.661-0.675 3.165-1.766 4.251l-0 0z"></path>
</svg>
