<!-- Generated by IcoMoon.io -->
<svg version="1.1" xmlns="http://www.w3.org/2000/svg" width="32" height="32" viewBox="0 0 32 32">
<title>flame</title>
<path d="M21.724 6.435c-1.53-1.61-3.238-3.027-5.1-4.227l-0.109-0.066c-0.147-0.090-0.325-0.143-0.515-0.143s-0.368 0.053-0.519 0.145l0.004-0.002c-1.971 1.265-3.679 2.682-5.198 4.281l-0.011 0.012c-3.453 3.625-5.276 7.624-5.276 11.565 0 6.075 4.925 11 11 11s11-4.925 11-11v0c0-3.941-1.824-7.94-5.276-11.565zM12 23c0-3.459 2.816-5.91 4-6.788 1.185 0.875 4 3.329 4 6.788 0 2.209-1.791 4-4 4s-4-1.791-4-4v0zM21.659 24.991c0.216-0.593 0.341-1.277 0.341-1.99 0-0 0-0.001 0-0.001v0c0-5.5-5.261-8.724-5.485-8.857-0.147-0.090-0.325-0.143-0.515-0.143s-0.368 0.053-0.519 0.145l0.004-0.002c-0.224 0.134-5.485 3.357-5.485 8.857 0 0 0 0.001 0 0.001 0 0.713 0.125 1.398 0.354 2.032l-0.013-0.042c-2.045-1.66-3.341-4.174-3.341-6.991v0c0-4.301 2.55-7.894 4.69-10.149 1.285-1.344 2.696-2.548 4.219-3.6l0.091-0.059c1.615 1.11 3.025 2.314 4.3 3.648l0.010 0.010c3.876 4.086 4.69 7.774 4.69 10.149 0 2.817-1.296 5.331-3.325 6.978l-0.017 0.013z"></path>
</svg>
