<!-- Generated by IcoMoon.io -->
<svg version="1.1" xmlns="http://www.w3.org/2000/svg" width="32" height="32" viewBox="0 0 32 32">
<title>infinity</title>
<path d="M31 16c0 0 0 0 0 0 0 3.866-3.134 7-7 7-1.933 0-3.683-0.784-4.95-2.050v0l-0.041-0.044-7.494-8.463c-0.903-0.892-2.144-1.444-3.515-1.444-2.761 0-5 2.239-5 5s2.239 5 5 5c1.37 0 2.612-0.551 3.515-1.444l-0 0 1.065-1.203c0.184-0.208 0.452-0.338 0.75-0.338 0.553 0 1.001 0.448 1.001 1.001 0 0.255-0.095 0.487-0.252 0.664l0.001-0.001-1.086 1.226-0.041 0.044c-1.267 1.267-3.017 2.050-4.95 2.050-3.866 0-7-3.134-7-7s3.134-7 7-7c1.933 0 3.683 0.783 4.95 2.050v0l0.041 0.044 7.494 8.462c0.903 0.892 2.144 1.444 3.515 1.444 2.761 0 5-2.239 5-5s-2.239-5-5-5c-1.37 0-2.612 0.551-3.515 1.444l0-0-1.065 1.203c-0.184 0.208-0.452 0.338-0.75 0.338-0.553 0-1.001-0.448-1.001-1.001 0-0.255 0.095-0.487 0.252-0.664l-0.001 0.001 1.086-1.226 0.041-0.044c1.267-1.267 3.017-2.050 4.95-2.050 3.866 0 7 3.134 7 7 0 0 0 0 0 0.001v-0z"></path>
</svg>
