<!-- Generated by IcoMoon.io -->
<svg version="1.1" xmlns="http://www.w3.org/2000/svg" width="32" height="32" viewBox="0 0 32 32">
<title>twitter</title>
<path d="M30.707 9.707l-3.738 3.738c-0.755 8.752-8.136 15.555-16.97 15.555-1.815 0-3.311-0.288-4.447-0.855-0.916-0.459-1.291-0.95-1.385-1.090-0.105-0.156-0.168-0.348-0.168-0.555 0-0.426 0.267-0.79 0.642-0.934l0.007-0.002c0.032-0.012 3.030-1.164 4.934-3.355-1.052-0.869-1.956-1.865-2.704-2.976l-0.031-0.049c-1.55-2.301-3.285-6.299-2.75-12.273 0.047-0.513 0.475-0.911 0.996-0.911 0.278 0 0.529 0.113 0.71 0.296l0 0c0.044 0.044 4.16 4.138 9.192 5.465v-0.761c0-0.004-0-0.009-0-0.014 0-1.673 0.687-3.186 1.794-4.272l0.001-0.001c1.060-1.058 2.523-1.713 4.14-1.713 0.029 0 0.057 0 0.086 0.001l-0.004-0c2.2 0.022 4.117 1.209 5.168 2.972l0.015 0.028h3.804c0 0 0 0 0.001 0 0.552 0 1 0.448 1 1 0 0.276-0.112 0.527-0.293 0.707v0z"></path>
</svg>
