<!-- Generated by IcoMoon.io -->
<svg version="1.1" xmlns="http://www.w3.org/2000/svg" width="32" height="32" viewBox="0 0 32 32">
<title>fork-knife</title>
<path d="M9 11v-6c0-0.552 0.448-1 1-1s1 0.448 1 1v0 6c0 0.552-0.448 1-1 1s-1-0.448-1-1v0zM27 5v23c0 0.552-0.448 1-1 1s-1-0.448-1-1v0-6h-6c-0.552 0-1-0.448-1-1v0c0.051-2.547 0.377-4.992 0.95-7.34l-0.047 0.23c1.223-5.061 3.54-8.454 6.704-9.809 0.116-0.051 0.251-0.081 0.394-0.081 0.552 0 1 0.447 1 1v0zM25 6.737c-4.021 3.071-4.809 10.552-4.962 13.262h4.962zM14.986 4.836c-0.074-0.485-0.489-0.852-0.989-0.852-0.552 0-1 0.448-1 1 0 0.064 0.006 0.127 0.018 0.187l-0.001-0.006 0.986 5.914c0 2.209-1.791 4-4 4s-4-1.791-4-4v0l0.985-5.914c0.011-0.054 0.017-0.117 0.017-0.181 0-0.552-0.448-1-1-1-0.5 0-0.915 0.367-0.988 0.847l-0.001 0.006-1 6c-0.008 0.048-0.013 0.103-0.013 0.159 0 0.002 0 0.003 0 0.005v-0c0.004 2.959 2.146 5.416 4.964 5.91l0.036 0.005v11.085c0 0.552 0.448 1 1 1s1-0.448 1-1v0-11.085c2.854-0.499 4.996-2.956 5-5.915v-0c-0-0.058-0.005-0.115-0.015-0.17l0.001 0.006z"></path>
</svg>
