<!-- Generated by IcoMoon.io -->
<svg version="1.1" xmlns="http://www.w3.org/2000/svg" width="32" height="32" viewBox="0 0 32 32">
<title>plant</title>
<path d="M30.954 4.986c-0.030-0.506-0.434-0.91-0.937-0.94l-0.003-0c-6.47-0.375-11.665 1.593-13.898 5.277-1.475 2.436-1.473 5.395-0.020 8.217-0.797 0.944-1.407 2.073-1.756 3.312l-0.015 0.063-2.034-2.041c0.977-2.041 0.94-4.169-0.125-5.936-1.65-2.724-5.459-4.184-10.188-3.906-0.506 0.030-0.91 0.434-0.94 0.937l-0 0.003c-0.279 4.729 1.183 8.537 3.906 10.187 0.85 0.527 1.881 0.84 2.985 0.84h0c1.075-0.014 2.086-0.274 2.984-0.727l-0.039 0.018 3.125 3.125v3.584c0 0.552 0.448 1 1 1s1-0.448 1-1v0-3.686c-0-0.006-0-0.013-0-0.019 0-1.655 0.578-3.175 1.544-4.369l-0.010 0.013c1.208 0.644 2.639 1.030 4.158 1.050l0.006 0c0.007 0 0.016 0 0.025 0 1.462 0 2.828-0.412 3.987-1.126l-0.033 0.019c3.685-2.23 5.657-7.425 5.277-13.895zM5.976 18.45c-1.918-1.161-3.002-3.91-2.976-7.45 3.54-0.030 6.289 1.059 7.45 2.976 0.606 1 0.705 2.166 0.307 3.367l-3.051-3.051c-0.179-0.17-0.422-0.275-0.689-0.275-0.552 0-1 0.448-1 1 0 0.267 0.105 0.51 0.275 0.689l3.051 3.051c-1.201 0.398-2.366 0.299-3.367-0.308zM24.64 17.172c-1.675 1.014-3.644 1.091-5.644 0.25l6.711-6.713c0.17-0.179 0.275-0.422 0.275-0.689 0-0.552-0.448-1-1-1-0.267 0-0.51 0.105-0.689 0.275l0-0-6.712 6.704c-0.845-2-0.769-3.97 0.25-5.644 1.742-2.875 5.875-4.478 11.166-4.354 0.12 5.29-1.48 9.428-4.358 11.17z"></path>
</svg>
