<!-- Generated by IcoMoon.io -->
<svg version="1.1" xmlns="http://www.w3.org/2000/svg" width="32" height="32" viewBox="0 0 32 32">
<title>star</title>
<path d="M29.9 12.161c-0.25-0.754-0.916-1.301-1.718-1.374l-0.008-0.001-7.424-0.64-2.91-6.92c-0.309-0.726-1.016-1.226-1.84-1.226s-1.531 0.5-1.835 1.213l-0.005 0.013-2.901 6.92-7.433 0.644c-1.030 0.089-1.833 0.947-1.833 1.993 0 0.604 0.268 1.146 0.691 1.512l0.002 0.002 5.639 4.928-1.69 7.317c-0.033 0.137-0.052 0.293-0.052 0.455 0 1.105 0.895 2 2 2 0.381 0 0.738-0.107 1.041-0.292l-0.009 0.005 6.375-3.875 6.389 3.875c0.294 0.18 0.651 0.287 1.032 0.287 1.105 0 2-0.895 2-2 0-0.161-0.019-0.318-0.055-0.468l0.003 0.014-1.689-7.325 5.637-4.92c0.424-0.369 0.691-0.909 0.691-1.512 0-0.223-0.037-0.438-0.104-0.638l0.004 0.014zM27.997 12.786l-5.637 4.92c-0.422 0.369-0.687 0.908-0.687 1.509 0 0.161 0.019 0.318 0.055 0.468l-0.003-0.014 1.694 7.33-6.384-3.875c-0.294-0.182-0.651-0.29-1.034-0.29s-0.739 0.108-1.042 0.295l0.009-0.005-6.375 3.875 1.682-7.325c0.033-0.137 0.052-0.293 0.052-0.455 0-0.601-0.265-1.14-0.685-1.507l-0.002-0.002-5.64-4.918c-0-0.002-0-0.004-0-0.006s0-0.004 0-0.006l-0 0 7.43-0.643c0.754-0.068 1.381-0.546 1.664-1.206l0.005-0.013 2.901-6.911 2.9 6.911c0.288 0.673 0.915 1.15 1.661 1.218l0.008 0.001 7.431 0.643s0 0.008 0 0.009z"></path>
</svg>
